<?xml version="1.0" standalone="no"?>
<!DOCTYPE svg PUBLIC "-//W3C//DTD SVG 20010904//EN"
 "http://www.w3.org/TR/2001/REC-SVG-20010904/DTD/svg10.dtd">
<svg version="1.0" xmlns="http://www.w3.org/2000/svg"
 width="225.000000pt" height="225.000000pt" viewBox="0 0 225.000000 225.000000"
 preserveAspectRatio="xMidYMid meet">

<g transform="translate(0.000000,225.000000) scale(0.100000,-0.100000)"
fill="#000000" stroke="none">
<path d="M1075 2204 c-328 -53 -583 -295 -649 -616 -29 -139 -16 -285 37 -430
83 -228 286 -409 530 -474 l67 -18 0 -58 c0 -65 6 -69 58 -38 58 36 110 148
121 265 l6 70 190 0 190 0 53 30 c65 36 96 71 135 154 42 89 50 227 18 327
-26 86 -76 154 -138 191 l-48 28 -402 3 c-327 2 -403 0 -403 -10 0 -7 11 -30
25 -51 55 -80 135 -97 480 -97 292 0 288 1 328 -73 32 -61 32 -193 -1 -259
-41 -82 -43 -83 -323 -86 l-247 -3 -20 33 c-11 18 -24 45 -27 61 -10 37 -22
43 -47 21 -53 -49 -64 -152 -27 -269 11 -37 18 -69 15 -73 -3 -3 -41 12 -83
33 -102 50 -205 152 -251 247 -143 294 -19 660 270 796 197 93 417 64 605 -80
35 -27 66 -48 67 -46 67 84 146 200 142 207 -11 16 -137 97 -211 134 -115 57
-196 78 -320 82 -60 2 -123 1 -140 -1z"/>
<path d="M443 439 c14 -8 17 -24 17 -89 0 -66 -3 -79 -17 -83 -10 -3 5 -5 32
-6 28 0 45 3 39 7 -6 4 -13 21 -16 39 -4 30 -3 32 39 38 50 7 71 34 55 70 -11
25 -48 35 -121 35 -36 -1 -42 -3 -28 -11z m98 -9 c5 0 9 -15 9 -34 0 -26 -5
-36 -21 -41 -27 -9 -33 -2 -31 40 1 49 0 48 18 41 9 -3 20 -6 25 -6z"/>
<path d="M868 443 c8 -3 12 -31 12 -88 0 -57 -4 -85 -12 -88 -7 -3 22 -6 65
-6 60 -1 77 2 77 13 0 8 3 21 6 30 10 25 -10 19 -21 -6 -7 -16 -20 -24 -42
-26 -32 -3 -33 -2 -33 37 0 44 20 56 39 24 8 -14 10 -9 11 27 0 43 0 44 -16
22 -23 -33 -34 -27 -34 18 0 35 3 40 23 40 27 0 40 -9 55 -35 10 -18 11 -17
12 13 l0 32 -77 -1 c-43 0 -72 -3 -65 -6z"/>
<path d="M1293 443 c14 -4 17 -17 17 -88 0 -71 -3 -84 -17 -88 -10 -3 7 -5 37
-5 30 0 47 2 38 5 -14 3 -18 15 -18 48 0 38 2 43 20 38 19 -5 25 -17 32 -68 2
-15 12 -20 38 -22 19 -1 27 1 18 3 -11 4 -18 15 -18 31 0 15 -8 35 -17 46 -17
18 -17 19 0 28 23 13 22 56 -2 69 -11 5 -48 9 -83 9 -35 -1 -55 -3 -45 -6z
m102 -38 c0 -23 -5 -31 -22 -33 -20 -3 -23 1 -23 33 0 32 3 36 23 33 17 -2 22
-10 22 -33z"/>
<path d="M1738 443 c8 -3 12 -31 12 -88 0 -57 -4 -85 -12 -88 -7 -3 10 -5 37
-5 28 0 42 2 33 5 -15 4 -18 17 -18 88 0 71 3 84 18 88 9 3 -5 5 -33 5 -27 0
-44 -2 -37 -5z"/>
</g>
</svg>
